<?xml version="1.0" encoding="UTF-8"?>
<svg id="Layer_2" data-name="Layer 2" xmlns="http://www.w3.org/2000/svg" viewBox="0 0 99.24 131.49">
  <g id="Layer_1-2" >
    <text transform="translate(.76 118.33) scale(.76 1)" fill="#fff" font-family="Interstate-Black, Interstate" font-size="15.95" font-weight="800"><tspan x="0" y="0" letter-spacing="-.07em">P</tspan><tspan x="9.65" y="0" letter-spacing="-.07em">A</tspan><tspan x="20.72" y="0">WEŁ </tspan><tspan x="61.51" y="0" letter-spacing="0em">C</tspan><tspan x="72.3" y="0">ZEK</tspan><tspan x="105.96" y="0" letter-spacing="0em">A</tspan><tspan x="117.96" y="0">J</tspan></text>
    <text transform="translate(.24 129.89) scale(1.61 1)" fill="#fff" font-family="Interstate-Thin, Interstate" font-size="8.17" font-weight="200"><tspan x="0" y="0">PER</tspan><tspan x="13.98" y="0" letter-spacing="0em">S</tspan><tspan x="18.57" y="0">ONAL B</tspan><tspan x="46.22" y="0" letter-spacing="-.02em">L</tspan><tspan x="50.19" y="0">OG</tspan></text>
    <g>
      <path d="M16.64,86.92c-7.06-6.82-12.02-14.18-14.59-23.05-3.37-11.63-2.57-22.99,2.22-34.07,4.5-10.4,11.81-18.3,21.74-23.72C33.59,1.94,41.78-.19,50.39.01c19.54.45,37.24,11.72,44.94,30.14,1.7,4.08,2.55,8.52,3.78,12.79.42,1.47-.11,2.15-1.69,2.14-4.39-.04-8.79-.05-13.18,0-1.59.02-1.99-.82-2.33-2.22-3.19-13.07-11.37-21.59-24.31-24.89-19.84-5.05-39.37,9.09-40.59,29.54-.72,12.06-.28,24.19-.36,36.29,0,.84,0,1.68,0,3.12Z" fill="#fff" stroke-width="0"/>
      <path d="M44.23,74.38v24.97c-3-.61-5.77-.95-8.4-1.77-3.07-.96-6.01-2.33-9-3.53-1.51-.61-2.19-1.59-2.18-3.35.07-13.32,0-26.65.06-39.97.06-11.25,5.96-20.17,16.43-24.16,10.54-4.02,22.54-.41,29.17,9.31,10.06,14.74,1.84,35.01-15.67,38.41-3.24.63-6.71.09-10.42.09ZM57.43,49.87c.02-4.22-3.35-7.66-7.56-7.72-4.23-.07-7.82,3.43-7.91,7.7-.09,4.18,3.52,7.82,7.76,7.84,4.31.01,7.69-3.42,7.71-7.82Z" fill="#fff" stroke-width="0"/>
      <path d="M99.11,54.31c-1.36,23.14-22.21,44.39-46.71,44.8-.07-1.01-.18-2.04-.19-3.07-.02-3.78.01-7.55-.01-11.33,0-1.27.38-1.86,1.79-2.09,12.15-1.98,20.91-8.54,26.01-19.78.94-2.08,1.26-4.43,2.08-6.57.29-.77,1.18-1.86,1.83-1.88,5.06-.15,10.13-.09,15.21-.09Z" fill="#fff" stroke-width="0"/>
    </g>
  </g>
</svg>