<?xml version="1.0" encoding="UTF-8"?>
<svg id="Layer_2" data-name="Layer 2" xmlns="http://www.w3.org/2000/svg" viewBox="0 0 169 73.8">
  <g id="Layer_1-2" data-name="Layer 1">
    <g>
      <text transform="translate(84.54 34.68) scale(.76 1)" fill="#e6e6e6" font-family="LoosNormal-Medium, &apos;Loos Normal&apos;" font-size="14.44" font-weight="500"><tspan x="0" y="0" letter-spacing="0em">P</tspan><tspan x="8.91" y="0" letter-spacing=".03em">A</tspan><tspan x="18.87" y="0" letter-spacing=".06em">WEŁ </tspan><tspan x="54.45" y="0" letter-spacing=".05em">C</tspan><tspan x="65.02" y="0" letter-spacing=".06em">ZE</tspan><tspan x="83.21" y="0" letter-spacing=".04em">K</tspan><tspan x="92.88" y="0" letter-spacing=".05em">A</tspan><tspan x="103.14" y="0" letter-spacing=".06em">J</tspan></text>
      <text transform="translate(84.54 48.44) scale(.85 1)" fill="#e6e6e6" font-family="LoosNormal-Light, &apos;Loos Normal&apos;" font-size="10.52" font-weight="300"><tspan x="0" y="0">P</tspan></text>
      <text transform="translate(89.58 48.44) scale(.59 .7)" fill="#e6e6e6" font-family="LoosNormal-Light, &apos;Loos Normal&apos;" font-size="10.52" font-weight="300"><tspan x="0" y="0">ERSONAL</tspan></text>
      <text transform="translate(115.01 48.44) scale(.85 1)" fill="#e6e6e6" font-family="LoosNormal-Light, &apos;Loos Normal&apos;" font-size="10.52" font-weight="300"><tspan x="0" y="0" xml:space="preserve"> B</tspan></text>
      <text transform="translate(122.05 48.44) scale(.59 .7)" fill="#e6e6e6" font-family="LoosNormal-Light, &apos;Loos Normal&apos;" font-size="10.52" font-weight="300"><tspan x="0" y="0" letter-spacing="-.04em">L</tspan><tspan x="4.78" y="0" letter-spacing="0em">O</tspan><tspan x="11.64" y="0">G</tspan></text>
    </g>
    <g>
      <rect x=".5" y="8.48" width="58" height="58" fill="none" stroke="#fff" stroke-miterlimit="10"/>
      <text transform="translate(2.76 33.4)" fill="#fff" font-family="LoosNormal-Bold, &apos;Loos Normal&apos;" font-size="40" font-weight="700"><tspan x="0" y="0">p</tspan></text>
      <text transform="translate(32.76 63.4)" fill="#fff" font-family="LoosNormal-Bold, &apos;Loos Normal&apos;" font-size="40" font-weight="700"><tspan x="0" y="0">c</tspan></text>
    </g>
  </g>
</svg>